<svg width="158" height="158" viewBox="0 0 93 21" fill="none" xmlns="http://www.w3.org/2000/svg">
<path d="M6.216 20H0V19.188C0.672 18.8893 1.344 18.6653 2.016 18.516L9.1 0.0639997H9.912L16.996 18.516C17.3693 18.5907 17.7333 18.6747 18.088 18.768C18.4613 18.8613 18.8067 19.0013 19.124 19.188V20H11.956V19.188C12.3293 19.0387 12.712 18.908 13.104 18.796C13.496 18.684 13.8787 18.5907 14.252 18.516L12.348 13.392H5.656L3.808 18.516C4.592 18.628 5.39467 18.852 6.216 19.188V20ZM6.216 11.936H11.872L9.66 6L9.128 3.592H9.072L8.372 6.056L6.216 11.936ZM73.9045 14.624H74.6325C74.6885 14.9973 74.7351 15.4173 74.7725 15.884C74.8285 16.3507 74.8658 16.8267 74.8845 17.312C74.9218 17.7973 74.9405 18.2733 74.9405 18.74C74.9591 19.2067 74.9591 19.6267 74.9405 20H60.0725V18.572L71.7205 1.856H63.0965L61.3885 5.776H60.6885C60.6325 5.384 60.5765 4.95467 60.5205 4.488C60.4831 4.02133 60.4458 3.54533 60.4085 3.06C60.3898 2.57467 60.3711 2.108 60.3525 1.66C60.3525 1.19333 60.3525 0.773333 60.3525 0.399999H74.6605V1.856L63.0685 18.544H72.1965L73.9045 14.624Z" fill="#fff"/>
<path d="M23.3133 18.068C23.5373 18.292 23.8266 18.488 24.1813 18.656C24.5359 18.8053 25.0679 18.88 25.7773 18.88C26.3746 18.88 26.9346 18.8053 27.4573 18.656C27.9799 18.488 28.4279 18.2547 28.8013 17.956C29.1933 17.6387 29.5013 17.2653 29.7253 16.836C29.9493 16.388 30.0613 15.884 30.0613 15.324C30.0613 14.5773 29.8279 13.952 29.3613 13.448C28.9133 12.944 28.3439 12.496 27.6533 12.104C26.9813 11.712 26.2439 11.3293 25.4413 10.956C24.6386 10.5827 23.8919 10.144 23.2013 9.64C22.5293 9.11733 21.9599 8.50133 21.4933 7.792C21.0453 7.064 20.8213 6.15867 20.8213 5.076C20.8213 4.292 20.9613 3.592 21.2413 2.976C21.5213 2.36 21.9133 1.83733 22.4173 1.408C22.9399 0.978666 23.5559 0.651999 24.2653 0.427998C24.9746 0.185333 25.7679 0.0639997 26.6453 0.0639997C27.7839 0.0639997 28.8199 0.157333 29.7533 0.343999C30.7053 0.511999 31.4519 0.726666 31.9933 0.987999C31.9933 1.30533 31.9653 1.67867 31.9093 2.108C31.8719 2.51867 31.8159 2.948 31.7413 3.396C31.6853 3.844 31.6199 4.28267 31.5453 4.712C31.4706 5.12267 31.3959 5.48667 31.3213 5.804H30.5933L29.4733 1.968C29.1373 1.81867 28.7079 1.70667 28.1853 1.632C27.6813 1.55733 27.1399 1.52 26.5613 1.52C25.6093 1.52 24.8439 1.79067 24.2653 2.332C23.6866 2.85467 23.3973 3.592 23.3973 4.544C23.3973 5.30933 23.6213 5.95333 24.0693 6.476C24.5359 6.99867 25.1146 7.46533 25.8053 7.876C26.4959 8.28667 27.2333 8.688 28.0173 9.08C28.8199 9.45333 29.5666 9.892 30.2573 10.396C30.9479 10.9 31.5173 11.4973 31.9653 12.188C32.4319 12.8787 32.6653 13.7373 32.6653 14.764C32.6653 15.604 32.5066 16.3693 32.1893 17.06C31.8906 17.7507 31.4519 18.3387 30.8733 18.824C30.2946 19.3093 29.5853 19.6827 28.7453 19.944C27.9053 20.2053 26.9533 20.336 25.8893 20.336C24.7133 20.336 23.6586 20.196 22.7253 19.916C21.7919 19.636 21.1293 19.3373 20.7373 19.02C20.7559 18.7027 20.7839 18.32 20.8213 17.872C20.8773 17.424 20.9333 16.9667 20.9893 16.5C21.0639 16.0147 21.1386 15.548 21.2133 15.1C21.2879 14.652 21.3626 14.2693 21.4373 13.952H22.1653L23.3133 18.068ZM38.325 18.068C38.549 18.292 38.8383 18.488 39.193 18.656C39.5477 18.8053 40.0797 18.88 40.789 18.88C41.3863 18.88 41.9463 18.8053 42.469 18.656C42.9917 18.488 43.4397 18.2547 43.813 17.956C44.205 17.6387 44.513 17.2653 44.737 16.836C44.961 16.388 45.073 15.884 45.073 15.324C45.073 14.5773 44.8397 13.952 44.373 13.448C43.925 12.944 43.3557 12.496 42.665 12.104C41.993 11.712 41.2557 11.3293 40.453 10.956C39.6503 10.5827 38.9037 10.144 38.213 9.64C37.541 9.11733 36.9717 8.50133 36.505 7.792C36.057 7.064 35.833 6.15867 35.833 5.076C35.833 4.292 35.973 3.592 36.253 2.976C36.533 2.36 36.925 1.83733 37.429 1.408C37.9517 0.978666 38.5677 0.651999 39.277 0.427998C39.9863 0.185333 40.7797 0.0639997 41.657 0.0639997C42.7957 0.0639997 43.8317 0.157333 44.765 0.343999C45.717 0.511999 46.4637 0.726666 47.005 0.987999C47.005 1.30533 46.977 1.67867 46.921 2.108C46.8837 2.51867 46.8277 2.948 46.753 3.396C46.697 3.844 46.6317 4.28267 46.557 4.712C46.4823 5.12267 46.4077 5.48667 46.333 5.804H45.605L44.485 1.968C44.149 1.81867 43.7197 1.70667 43.197 1.632C42.693 1.55733 42.1517 1.52 41.573 1.52C40.621 1.52 39.8557 1.79067 39.277 2.332C38.6983 2.85467 38.409 3.592 38.409 4.544C38.409 5.30933 38.633 5.95333 39.081 6.476C39.5477 6.99867 40.1263 7.46533 40.817 7.876C41.5077 8.28667 42.245 8.688 43.029 9.08C43.8317 9.45333 44.5783 9.892 45.269 10.396C45.9597 10.9 46.529 11.4973 46.977 12.188C47.4437 12.8787 47.677 13.7373 47.677 14.764C47.677 15.604 47.5183 16.3693 47.201 17.06C46.9023 17.7507 46.4637 18.3387 45.885 18.824C45.3063 19.3093 44.597 19.6827 43.757 19.944C42.917 20.2053 41.965 20.336 40.901 20.336C39.725 20.336 38.6703 20.196 37.737 19.916C36.8037 19.636 36.141 19.3373 35.749 19.02C35.7677 18.7027 35.7957 18.32 35.833 17.872C35.889 17.424 35.945 16.9667 36.001 16.5C36.0757 16.0147 36.1503 15.548 36.225 15.1C36.2997 14.652 36.3743 14.2693 36.449 13.952H37.177L38.325 18.068ZM57.6487 20H50.4807V19.188C51.2087 18.852 51.9554 18.628 52.7207 18.516V1.912C52.3474 1.83733 51.9741 1.744 51.6007 1.632C51.2274 1.50133 50.8541 1.36133 50.4807 1.212V0.399999H57.6487V1.212C57.3127 1.36133 56.9487 1.50133 56.5567 1.632C56.1647 1.744 55.7821 1.83733 55.4087 1.912V18.516C55.8007 18.5907 56.1927 18.684 56.5847 18.796C56.9767 18.908 57.3314 19.0387 57.6487 19.188V20ZM88.6703 20H80.8023V19.188C81.213 19.0387 81.6236 18.908 82.0343 18.796C82.4636 18.684 82.921 18.5907 83.4063 18.516V1.856H79.1223L77.6383 5.86H76.9383C76.8823 5.48667 76.8356 5.06667 76.7983 4.6C76.761 4.11467 76.7236 3.62933 76.6863 3.144C76.6676 2.64 76.649 2.15467 76.6303 1.688C76.6116 1.20267 76.6023 0.773333 76.6023 0.399999H92.8703C92.8703 0.773333 92.861 1.19333 92.8423 1.66C92.8236 2.12667 92.7956 2.612 92.7583 3.116C92.7396 3.60133 92.7116 4.08667 92.6743 4.572C92.6556 5.03867 92.6183 5.468 92.5623 5.86H91.8343L90.3783 1.856H86.0943V18.516C86.5796 18.6093 87.0276 18.7027 87.4383 18.796C87.8676 18.8893 88.2783 19.02 88.6703 19.188V20Z" fill="#F1CA26"/>
</svg>
