<svg xmlns="http://www.w3.org/2000/svg" width="190" height="80" viewBox="0 0 190 80">
    <g fill="#000">
        <path d="M164.868 51.75l-.81.802c-.73-.696-1.713-1.062-2.72-1.015-.626-.089-1.26.101-1.734.52-.475.42-.743 1.027-.733 1.662-.032.505.16 1 .526 1.35.463.343 1.006.563 1.577.638l1.285.203c.78.04 1.527.329 2.134.822.67.581 1.042 1.436 1.011 2.324 0 2.03-1.608 3.318-4.045 3.318l.02.01c-1.51.12-2.996-.446-4.046-1.542l.85-.863c.818.883 1.986 1.356 3.186 1.289 1.709 0 2.76-.812 2.76-2.171.034-.548-.169-1.084-.556-1.472-.435-.346-.971-.542-1.527-.558l-1.365-.213c-.787-.089-1.534-.398-2.154-.893-.603-.559-.926-1.359-.88-2.181 0-2.03 1.426-3.319 3.742-3.319 1.286-.065 2.544.4 3.479 1.29zm-64.726-1.187v7.762c0 1.015.54 1.953 1.416 2.46.876.508 1.955.508 2.831 0 .877-.507 1.416-1.445 1.416-2.46v-7.762h1.173v7.854c.027 1.076-.394 2.115-1.161 2.867-.767.753-1.812 1.151-2.884 1.1-1.073.054-2.119-.343-2.887-1.096-.768-.754-1.188-1.794-1.158-2.871v-7.854h1.254zm54.003.843c.662.623 1.024 1.503.994 2.414.07 1.546-1.026 2.9-2.549 3.146l2.781 5.327-1.466.05-2.68-5.296h-2.781v5.205h-1.254v-11.69h4.49c.904-.087 1.802.22 2.465.844zm29.018-.843l2.761 5.621 2.73-5.621H190l-3.449 6.88v4.85h-1.254v-4.85l-3.479-6.88h1.345zm-3.105 0v1.116h-3.388v10.614h-1.244V51.679h-3.377v-1.116h8.01zm-10.588 0v11.73h-1.244v-11.73h1.244zm-25.102 0v1.116h-6.007v4.14h5.127v1.116h-5.127v4.232h6.007v1.126h-7.251v-11.73h7.251zm-32.869 0l6.2 9.366v-9.366h1.244v11.73h-1.173l-6.21-9.406v9.406h-1.244v-11.73h1.183zm12.136 0v11.73h-1.244v-11.73h1.244zm3.702 0l3.034 9.487 3.034-9.487h1.315l-3.843 11.73h-1.012l-3.843-11.73h1.315zm24.201 1.116h-3.094v4.353h3.115c.815.08 1.605-.312 2.038-1.01.432-.699.432-1.583 0-2.282-.433-.698-1.223-1.09-2.038-1.01l-.02-.05zm-22.26-14.053h-2.447c-.137-1.013-1.004-1.765-2.022-1.756-.587-.037-1.157.199-1.548.64-.476.516-.598 1.052-.606 3.23v.27c0 2.405.11 2.953.606 3.49.389.445.96.684 1.548.65 1.018.01 1.885-.743 2.022-1.755h2.448c-.244 2.303-2.235 4.016-4.541 3.906v-.01c-1.247.03-2.452-.458-3.328-1.35-.52-.503-.873-1.155-1.011-1.867-.165-1.005-.236-2.025-.212-3.044-.023-1.019.048-2.038.212-3.044.136-.71.49-1.358 1.011-1.857.865-.916 2.07-1.43 3.328-1.42 2.31-.115 4.307 1.607 4.54 3.917zm-11.013-3.816v2.151h-5.724v2.913h4.875v2.15h-4.875v3.014h5.724v2.152h-8.131V33.81h8.131zm15.494 0v5.388l4.359-5.388h2.923l-4.086 4.922 4.379 7.458h-2.802l-3.175-5.632-1.598 1.908v3.724h-2.407V33.81h2.407zm-30.067 0c2.407 0 3.812 1.35 3.812 3.48.005 1.074-.588 2.06-1.537 2.558 1.089.48 1.766 1.588 1.7 2.78 0 2.313-1.579 3.562-3.773 3.562h-5.158V33.81h4.956zm68.61 0v2.151h-3.227V46.19h-2.407V35.96h-3.226v-2.15h8.86zm-21.3 0v2.151h-5.724v2.913h4.875v2.15h-4.875v3.014h5.724v2.152h-8.13V33.81h8.13zm10.751 0v2.151h-3.226V46.19h-2.407V35.96h-3.226v-2.15h8.859zm-58.092 7.184h-2.518v3.044h2.518c.425.046.847-.098 1.157-.393.31-.295.474-.711.451-1.139.02-.425-.146-.838-.455-1.129-.31-.29-.731-.43-1.153-.383zm-.162-5.073h-2.356v2.861h2.356c.537.046 1.053-.216 1.335-.676.282-.46.282-1.04 0-1.5-.282-.46-.798-.72-1.335-.675v-.01zm45.956-16.875l-1.557 1.472c-.693-.617-1.606-.925-2.529-.853-1.284 0-1.911.71-1.911 1.563-.004.335.127.657.364.893.328.272.73.441 1.153.487l1.456.203c.867.065 1.691.403 2.357.964.67.699 1.016 1.65.95 2.618 0 2.405-2.022 3.764-4.581 3.764v.04c-1.665.131-3.304-.464-4.5-1.633l1.557-1.573c.817.73 1.893 1.095 2.983 1.015 1.416 0 2.185-.538 2.185-1.532.016-.377-.123-.744-.385-1.015-.306-.26-.69-.41-1.092-.426l-1.507-.213c-.886-.074-1.726-.43-2.397-1.015-.613-.656-.93-1.537-.88-2.435 0-2.212 1.629-3.754 4.299-3.754 1.486-.115 2.95.404 4.035 1.43zm-11.57-.162c1.396 1.4 1.254 3.105 1.254 4.962l.002.483c.011 1.687.019 3.312-1.256 4.59v.03c-.885.813-2.058 1.237-3.256 1.178h-4.45v-12.42h4.45c1.198-.059 2.37.365 3.256 1.177zm-36.742-1.177v10.228h5.603v2.151h-8.01V17.707h2.407zm15.858 0v2.151h-5.724v2.912h4.874v2.151h-4.874v3.014H117v2.151h-8.131V17.707H117zm10.65 0v2.151h-5.725v2.912h4.875v2.151h-4.875v3.014h5.724v2.151h-8.13V17.707h8.13zm6.755 2.151h-1.82v8.118h1.82c.689.049 1.36-.239 1.8-.771.456-.559.526-1.441.526-3.318 0-1.878-.07-2.659-.526-3.217v-.04c-.44-.534-1.111-.82-1.8-.772z"/>
        <g>
            <path d="M40.2 43.782h-4.104v-5.554h4.105c.737-.074 1.47.188 2.008.718.539.53.831 1.277.802 2.049.025.772-.268 1.518-.805 2.05-.537.533-1.267.801-2.005.737m-4.105-13.065h3.89c.97-.108 1.915.37 2.433 1.232.518.862.518 1.956 0 2.818-.518.862-1.462 1.34-2.432 1.231h-3.89v-5.28zm7.236 6.76l-.972-.455.972-.466c1.201-.65 1.952-1.945 1.946-3.355 0-2.94-1.868-4.693-5-4.693h-6.672v17.484h6.945c3.093 0 4.95-1.804 4.95-4.815.092-1.584-.773-3.06-2.169-3.7M23.489 43.58L23.489 30.919 25.815 30.919 25.815 41.377 31.226 41.377 31.226 43.58zM52.952 43.572c-1.168.073-2.313-.359-3.16-1.192-.847-.834-1.321-1.995-1.308-3.204V30.92h2.366v8.156c-.054.814.335 1.59 1.01 2.014.673.423 1.52.423 2.194 0 .674-.424 1.063-1.2 1.01-2.014V30.92h2.346v8.247c.013 1.207-.46 2.366-1.305 3.2-.845.833-1.987 1.266-3.153 1.196" transform="translate(0 .32)"/>
            <path d="M40.162 15.244c-8.906-.004-16.938 5.428-20.349 13.763-3.411 8.336-1.53 17.932 4.767 24.314 6.296 6.382 15.767 8.292 23.996 4.84 8.23-3.452 13.595-11.587 13.595-20.61-.011-12.311-9.857-22.29-22.009-22.307m0 43.684c-8.54.004-16.241-5.205-19.511-13.198-3.27-7.993-1.465-17.194 4.574-23.312 6.039-6.118 15.121-7.947 23.01-4.634 7.89 3.313 13.032 11.115 13.028 19.767-.017 11.8-9.454 21.36-21.1 21.377" transform="translate(0 .32)"/>
            <path d="M40.163 13.83c-9.475-.003-18.02 5.776-21.648 14.643-3.63 8.868-1.628 19.076 5.07 25.866 6.7 6.789 16.775 8.82 25.53 5.148 8.753-3.672 14.462-12.326 14.462-21.925-.011-13.098-10.486-23.715-23.414-23.731m0 49.645c-10.352.004-19.686-6.31-23.65-15.999-3.963-9.688-1.774-20.84 5.546-28.257 7.32-7.415 18.328-9.632 27.89-5.617 9.563 4.015 15.796 13.472 15.792 23.959-.016 14.305-11.459 25.897-25.578 25.914M53.753.488C49.086-.6 43.37 1.47 43.37 1.47c-1.02.372-2.098.558-3.184.55-1.103.03-2.202-.14-3.243-.501 0 0-5.716-2.12-10.383-.982 0 0-4.587.874-3.5 6.87 0 0 .247-4.672 6.081-4.662 0 0 2.185-.088 6.763 2.022.422.215.858.402 1.306.559.296.098.613.186.988.265l.317.069c.14.03.282.05.425.059.842.124 1.699.124 2.541 0l.405-.157.376-.079h.158c.228-.057.452-.126.673-.206.45-.159.889-.346 1.315-.56 4.568-2.11 6.753-2.02 6.753-2.02 5.834 0 6.081 4.66 6.081 4.66 1.088-5.956-3.5-6.869-3.5-6.869M.312 38.972c.62-4.846 4.617-9.531 4.617-9.531.725-.83 1.295-1.79 1.683-2.831.385-1.037.585-2.136.59-3.245 0 0 0-6.216 2.688-10.267 0 0 2.431-4.03 7.649-.856 0 0-4.47-1.46-6.517 4.1 0 0-.847 2.016-.492 7.175.059.484.082.972.069 1.46-.009.338-.035.674-.08 1.008 0 .11 0 .222-.048.323l-.089.433c-.195.845-.503 1.659-.915 2.418-.06.11-.118.222-.187.332l-.207.333c-.036.041-.069.085-.099.13-.133.2-.278.392-.433.575-.305.359-.634.695-.984 1.008C3.984 35.184 3.265 37.3 3.265 37.3 1.198 42.852 5.5 44.786 5.5 44.786-.446 43.658.312 38.972.312 38.972M80.024 39.014c-.623-4.853-4.633-9.545-4.633-9.545-.71-.837-1.265-1.798-1.64-2.836-.397-1.036-.605-2.137-.613-3.25 0 0 0-6.225-2.697-10.281 0 0-2.44-4.037-7.675-.858 0 0 4.495-1.463 6.54 4.107 0 0 .859 2.018.493 7.184-.069.485-.102.974-.098 1.463 0 .313 0 .656.079 1.01v.322c0 .101.059.283.098.434.188.848.494 1.663.91 2.422l.187.333.217.333.09.131c.133.2.278.392.434.575.306.36.636.696.988 1.01 3.605 3.602 4.287 5.72 4.287 5.72 2.074 5.56-2.242 7.498-2.242 7.498 6.006-1.13 5.196-5.822 5.196-5.822M6.879 59.865c3.333 3.587 9.35 5.006 9.35 5.006 2.15.532 4.048 1.808 5.366 3.608 0 0 3.624 5.067 8.179 6.77 0 0 4.365 1.854 6.808-3.892 0 0-2.844 3.881-7.749.567 0 0-1.902-1.165-4.575-5.563-.23-.43-.492-.844-.781-1.237-.199-.275-.416-.536-.65-.78l-.23-.233-.321-.294c-.64-.58-1.357-1.065-2.133-1.439l-.35-.162-.37-.142-.16-.06c-.224-.081-.45-.149-.681-.203-.475-.11-.957-.188-1.442-.234-5.006-.79-6.838-2.097-6.838-2.097-4.925-3.304-2.492-7.46-2.492-7.46-4.285 4.51-.911 7.865-.911 7.865M73.408 59.865c-3.317 3.587-9.322 5.006-9.322 5.006-2.165.52-4.079 1.797-5.406 3.608 0 0-3.617 5.067-8.163 6.77 0 0-4.356 1.854-6.794-3.892 0 0 2.837 3.881 7.743.567 0 0 1.889-1.165 4.557-5.563.231-.432.495-.846.789-1.237.19-.253.41-.516.65-.78.07-.083.148-.16.23-.233l.319-.294c.646-.577 1.37-1.058 2.148-1.429l.35-.162.37-.142.16-.06c.41-.143.679-.203.679-.203.484-.115.974-.196 1.469-.244 4.996-.79 6.824-2.097 6.824-2.097 4.916-3.304 2.488-7.46 2.488-7.46 4.276 4.51.91 7.865.91 7.865M40.445 79.151L42.533 65.285 40.445 65.285 38.367 65.285zM79.429 50.212L67.071 43.58 66.411 45.715 65.741 47.85zM.876 50.212L13.233 43.58 13.903 45.715 14.563 47.85zM64.551 3.186L57.955 15.847 56.195 14.539 54.435 13.242zM15.753 3.186L22.349 15.847 24.11 14.539 25.87 13.242z" transform="translate(0 .32)"/>
        </g>
    </g>
</svg>
