<?xml version="1.0" encoding="UTF-8"?>
<!DOCTYPE svg PUBLIC "-//W3C//DTD SVG 1.1//EN" "http://www.w3.org/Graphics/SVG/1.1/DTD/svg11.dtd">
<svg version="1.1" xmlns="http://www.w3.org/2000/svg" xmlns:xlink="http://www.w3.org/1999/xlink" x="0" y="0" width="473.415" height="153.659" viewBox="0, 0, 473.415, 153.659">
  <g id="Layer_1" transform="translate(-184.237, -200.966)">
    <g>
      <path d="M309.77,341.581 C309.77,342.811 309.585,343.944 309.214,344.979 C308.842,346.017 308.292,346.914 307.559,347.677 C306.826,348.438 305.912,349.034 304.818,349.465 C303.724,349.893 302.464,350.108 301.037,350.108 C299.591,350.108 298.322,349.893 297.228,349.465 C296.133,349.034 295.22,348.438 294.487,347.677 C293.755,346.914 293.203,346.017 292.832,344.979 C292.46,343.944 292.275,342.811 292.275,341.581 L292.275,328.832 L296.848,328.832 L296.848,341.405 C296.848,342.049 296.949,342.646 297.154,343.193 C297.359,343.74 297.647,344.214 298.02,344.613 C298.391,345.016 298.835,345.327 299.352,345.552 C299.87,345.776 300.431,345.889 301.037,345.889 C301.643,345.889 302.199,345.776 302.708,345.552 C303.215,345.327 303.655,345.016 304.026,344.613 C304.397,344.214 304.686,343.74 304.891,343.193 C305.096,342.646 305.198,342.049 305.198,341.405 L305.198,328.832 L309.77,328.832 z" fill="#000"/>
      <path d="M327.231,334.225 C326.781,333.678 326.23,333.257 325.575,332.964 C324.92,332.671 324.163,332.526 323.304,332.526 C322.444,332.526 321.648,332.692 320.916,333.024 C320.183,333.356 319.548,333.82 319.011,334.415 C318.473,335.011 318.053,335.719 317.751,336.54 C317.447,337.361 317.296,338.249 317.296,339.206 C317.296,340.184 317.447,341.078 317.751,341.889 C318.053,342.7 318.469,343.403 318.996,343.998 C319.523,344.595 320.143,345.059 320.857,345.39 C321.57,345.723 322.337,345.889 323.157,345.889 C324.095,345.889 324.925,345.694 325.648,345.303 C326.371,344.912 326.967,344.365 327.436,343.662 L331.246,346.504 C330.367,347.735 329.253,348.643 327.905,349.229 C326.557,349.815 325.169,350.108 323.743,350.108 C322.122,350.108 320.627,349.854 319.26,349.347 C317.892,348.839 316.71,348.111 315.713,347.163 C314.717,346.216 313.941,345.068 313.384,343.72 C312.827,342.371 312.549,340.868 312.549,339.206 C312.549,337.546 312.827,336.041 313.384,334.694 C313.941,333.345 314.717,332.199 315.713,331.25 C316.71,330.303 317.892,329.576 319.26,329.067 C320.627,328.559 322.122,328.305 323.743,328.305 C324.329,328.305 324.94,328.359 325.575,328.466 C326.21,328.575 326.835,328.746 327.45,328.979 C328.066,329.213 328.657,329.527 329.224,329.917 C329.79,330.308 330.297,330.787 330.748,331.353 z" fill="#000"/>
      <path d="M333.37,328.832 L337.942,328.832 L337.942,345.36 L346.411,345.36 L346.411,349.581 L333.37,349.581 z" fill="#000"/>
      <path d="M356.413,343.339 C356.08,343.339 355.666,343.354 355.168,343.383 C354.669,343.411 354.19,343.495 353.732,343.632 C353.272,343.769 352.882,343.974 352.559,344.247 C352.237,344.521 352.076,344.901 352.076,345.39 C352.076,345.917 352.301,346.309 352.75,346.563 C353.2,346.817 353.668,346.943 354.157,346.943 C354.586,346.943 355.001,346.885 355.402,346.768 C355.803,346.651 356.159,346.485 356.472,346.27 C356.784,346.055 357.033,345.781 357.219,345.448 C357.405,345.116 357.497,344.727 357.497,344.276 L357.497,343.339 z M357.497,347.793 L357.439,347.793 C356.951,348.555 356.301,349.103 355.49,349.434 C354.679,349.766 353.825,349.933 352.926,349.933 C352.262,349.933 351.622,349.84 351.006,349.653 C350.391,349.469 349.849,349.19 349.38,348.818 C348.911,348.447 348.54,347.988 348.267,347.442 C347.993,346.895 347.856,346.26 347.856,345.536 C347.856,344.716 348.007,344.023 348.31,343.455 C348.613,342.89 349.023,342.42 349.541,342.049 C350.059,341.679 350.65,341.39 351.314,341.185 C351.978,340.98 352.667,340.828 353.38,340.731 C354.093,340.633 354.806,340.574 355.519,340.555 C356.232,340.535 356.892,340.526 357.497,340.526 C357.497,339.744 357.219,339.123 356.663,338.664 C356.105,338.205 355.446,337.976 354.684,337.976 C353.961,337.976 353.302,338.127 352.706,338.43 C352.11,338.734 351.578,339.149 351.109,339.675 L348.765,337.273 C349.585,336.51 350.542,335.94 351.637,335.558 C352.73,335.177 353.864,334.986 355.036,334.986 C356.326,334.986 357.385,335.149 358.216,335.47 C359.046,335.792 359.71,336.267 360.208,336.892 C360.706,337.517 361.053,338.283 361.249,339.193 C361.444,340.101 361.542,341.151 361.542,342.343 L361.542,349.581 L357.497,349.581 z" fill="#000"/>
      <path d="M364.55,335.338 L368.77,335.338 L368.77,337.273 L368.829,337.273 C368.965,336.999 369.161,336.726 369.415,336.452 C369.669,336.178 369.972,335.935 370.323,335.719 C370.675,335.504 371.075,335.328 371.525,335.192 C371.975,335.055 372.463,334.986 372.991,334.986 C374.103,334.986 375.003,335.158 375.687,335.499 C376.369,335.841 376.902,336.316 377.284,336.92 C377.664,337.526 377.923,338.239 378.059,339.061 C378.197,339.88 378.265,340.771 378.265,341.727 L378.265,349.581 L373.869,349.581 L373.869,342.607 C373.869,342.195 373.854,341.771 373.826,341.331 C373.796,340.892 373.708,340.486 373.562,340.115 C373.416,339.744 373.19,339.442 372.888,339.206 C372.584,338.973 372.151,338.856 371.583,338.856 C371.017,338.856 370.558,338.957 370.206,339.162 C369.854,339.367 369.586,339.642 369.4,339.984 C369.214,340.325 369.092,340.711 369.034,341.141 C368.975,341.57 368.946,342.02 368.946,342.488 L368.946,349.581 L364.55,349.581 z" fill="#000"/>
      <path d="M235.816,244.965 C233.484,244.965 231.293,245.873 229.589,247.58 L227.38,250.048 L225.115,247.521 C223.467,245.873 221.276,244.965 218.945,244.965 L184.237,244.965 L184.237,302.049 L184.237,309.764 C184.237,318.928 191.435,329.259 205.631,340.472 C216.028,348.684 226.573,354.392 226.678,354.447 C226.897,354.566 227.139,354.625 227.38,354.625 C227.62,354.625 227.86,354.567 228.078,354.45 C229.811,353.527 270.524,331.553 270.524,309.504 L270.524,302.049 L270.524,244.965 z" fill="#000"/>
      <path d="M187.197,300.349 L187.197,309.764 C187.197,313.708 188.826,318.046 192.039,322.658 C195.439,327.537 200.629,332.749 207.467,338.15 C216.12,344.985 224.899,350.062 227.387,351.457 C229.976,350.026 239.178,344.77 248.096,337.593 C260.833,327.344 267.565,317.631 267.565,309.504 L267.565,300.349 L227.381,277.264 z" fill="#FFFFFF"/>
      <path d="M211.785,272.554 L210.036,272.554 L210.036,260.059 L209.994,260.059 L207.35,262.287 L206.308,261.017 L210.265,257.81 L211.785,257.81 z" fill="#FFFFFF"/>
      <path d="M217.716,261.496 C217.716,262.204 217.941,262.788 218.392,263.246 C218.843,263.704 219.437,263.933 220.173,263.933 C220.908,263.933 221.502,263.704 221.953,263.246 C222.404,262.788 222.631,262.204 222.631,261.496 C222.631,260.788 222.404,260.204 221.953,259.747 C221.502,259.289 220.908,259.059 220.173,259.059 C219.437,259.059 218.843,259.289 218.392,259.747 C217.941,260.204 217.716,260.788 217.716,261.496 M217.216,268.368 C217.216,268.799 217.292,269.194 217.445,269.556 C217.597,269.915 217.809,270.225 218.08,270.482 C218.351,270.739 218.663,270.94 219.017,271.086 C219.371,271.232 219.757,271.305 220.173,271.305 C220.59,271.305 220.975,271.232 221.329,271.086 C221.683,270.94 221.995,270.739 222.266,270.482 C222.536,270.225 222.748,269.915 222.901,269.556 C223.053,269.194 223.13,268.799 223.13,268.368 C223.13,267.938 223.053,267.542 222.901,267.182 C222.748,266.82 222.536,266.512 222.266,266.255 C221.995,265.997 221.683,265.797 221.329,265.651 C220.975,265.505 220.59,265.432 220.173,265.432 C219.757,265.432 219.371,265.505 219.017,265.651 C218.663,265.797 218.351,265.997 218.08,266.255 C217.809,266.512 217.597,266.82 217.445,267.182 C217.292,267.542 217.216,267.938 217.216,268.368 M215.966,261.413 C215.966,260.829 216.073,260.303 216.289,259.829 C216.504,259.358 216.799,258.954 217.174,258.622 C217.549,258.289 217.993,258.029 218.507,257.842 C219.021,257.654 219.576,257.56 220.173,257.56 C220.77,257.56 221.325,257.654 221.839,257.842 C222.352,258.029 222.797,258.289 223.172,258.622 C223.547,258.954 223.841,259.358 224.057,259.829 C224.272,260.303 224.38,260.829 224.38,261.413 C224.38,261.76 224.324,262.107 224.213,262.454 C224.102,262.801 223.942,263.121 223.734,263.411 C223.526,263.704 223.272,263.961 222.974,264.183 C222.675,264.405 222.339,264.564 221.964,264.661 L221.964,264.703 C222.408,264.799 222.811,264.964 223.172,265.193 C223.532,265.422 223.838,265.703 224.088,266.036 C224.338,266.368 224.532,266.747 224.671,267.171 C224.81,267.595 224.88,268.035 224.88,268.493 C224.88,269.16 224.758,269.76 224.515,270.295 C224.272,270.829 223.939,271.284 223.515,271.659 C223.091,272.034 222.592,272.318 222.016,272.513 C221.44,272.707 220.825,272.803 220.173,272.803 C219.52,272.803 218.906,272.707 218.33,272.513 C217.754,272.318 217.254,272.034 216.831,271.659 C216.407,271.284 216.073,270.829 215.831,270.295 C215.588,269.76 215.467,269.16 215.467,268.493 C215.467,268.035 215.536,267.595 215.675,267.171 C215.814,266.747 216.008,266.368 216.258,266.036 C216.508,265.703 216.813,265.422 217.174,265.193 C217.535,264.964 217.938,264.799 218.382,264.703 L218.382,264.661 C218.007,264.564 217.671,264.405 217.372,264.183 C217.073,263.961 216.82,263.704 216.612,263.411 C216.404,263.121 216.244,262.801 216.133,262.454 C216.022,262.107 215.966,261.76 215.966,261.413" fill="#FFFFFF"/>
      <path d="M227.22,270.555 L232.78,265.14 C233.127,264.807 233.432,264.498 233.696,264.214 C233.96,263.93 234.178,263.652 234.352,263.381 C234.526,263.11 234.654,262.829 234.738,262.537 C234.821,262.246 234.862,261.92 234.862,261.558 C234.862,261.17 234.793,260.823 234.654,260.517 C234.515,260.212 234.324,259.952 234.082,259.737 C233.838,259.521 233.554,259.355 233.228,259.237 C232.901,259.119 232.551,259.059 232.176,259.059 C231.426,259.059 230.808,259.275 230.323,259.705 C229.837,260.136 229.524,260.705 229.386,261.413 L227.491,261.246 C227.588,260.649 227.772,260.118 228.042,259.653 C228.313,259.188 228.653,258.803 229.063,258.497 C229.472,258.192 229.934,257.959 230.448,257.8 C230.961,257.64 231.516,257.56 232.114,257.56 C232.724,257.56 233.301,257.647 233.842,257.821 C234.384,257.994 234.859,258.247 235.269,258.58 C235.678,258.914 236.004,259.33 236.247,259.83 C236.49,260.33 236.612,260.906 236.612,261.558 C236.612,262.141 236.532,262.669 236.372,263.141 C236.212,263.613 235.997,264.047 235.727,264.443 C235.456,264.839 235.15,265.213 234.81,265.567 C234.47,265.921 234.113,266.272 233.738,266.619 L229.198,270.888 L229.198,270.93 L236.716,270.93 L236.716,272.554 L227.22,272.554 z" fill="#FFFFFF"/>
      <path d="M241.29,261.496 C241.29,262.204 241.516,262.788 241.967,263.246 C242.417,263.704 243.011,263.933 243.748,263.933 C244.483,263.933 245.077,263.704 245.528,263.246 C245.978,262.788 246.205,262.204 246.205,261.496 C246.205,260.788 245.978,260.204 245.528,259.747 C245.077,259.289 244.483,259.059 243.748,259.059 C243.011,259.059 242.417,259.289 241.967,259.747 C241.516,260.204 241.29,260.788 241.29,261.496 M240.79,268.368 C240.79,268.799 240.866,269.194 241.019,269.556 C241.172,269.915 241.384,270.225 241.654,270.482 C241.925,270.739 242.237,270.94 242.591,271.086 C242.945,271.232 243.331,271.305 243.748,271.305 C244.164,271.305 244.549,271.232 244.903,271.086 C245.257,270.94 245.569,270.739 245.84,270.482 C246.111,270.225 246.322,269.915 246.476,269.556 C246.628,269.194 246.705,268.799 246.705,268.368 C246.705,267.938 246.628,267.542 246.476,267.182 C246.322,266.82 246.111,266.512 245.84,266.255 C245.569,265.997 245.257,265.797 244.903,265.651 C244.549,265.505 244.164,265.432 243.748,265.432 C243.331,265.432 242.945,265.505 242.591,265.651 C242.237,265.797 241.925,265.997 241.654,266.255 C241.384,266.512 241.172,266.82 241.019,267.182 C240.866,267.542 240.79,267.938 240.79,268.368 M239.54,261.413 C239.54,260.829 239.648,260.303 239.863,259.829 C240.079,259.358 240.373,258.954 240.748,258.622 C241.123,258.289 241.567,258.029 242.082,257.842 C242.595,257.654 243.15,257.56 243.748,257.56 C244.344,257.56 244.899,257.654 245.414,257.842 C245.927,258.029 246.371,258.289 246.746,258.622 C247.121,258.954 247.415,259.358 247.631,259.829 C247.846,260.303 247.954,260.829 247.954,261.413 C247.954,261.76 247.898,262.107 247.788,262.454 C247.676,262.801 247.517,263.121 247.309,263.411 C247.1,263.704 246.847,263.961 246.548,264.183 C246.249,264.405 245.913,264.564 245.538,264.661 L245.538,264.703 C245.982,264.799 246.385,264.964 246.746,265.193 C247.107,265.422 247.413,265.703 247.663,266.036 C247.912,266.368 248.106,266.747 248.246,267.171 C248.384,267.595 248.454,268.035 248.454,268.493 C248.454,269.16 248.332,269.76 248.089,270.295 C247.846,270.829 247.513,271.284 247.09,271.659 C246.666,272.034 246.166,272.318 245.59,272.513 C245.014,272.707 244.4,272.803 243.748,272.803 C243.095,272.803 242.48,272.707 241.904,272.513 C241.328,272.318 240.828,272.034 240.405,271.659 C239.981,271.284 239.648,270.829 239.405,270.295 C239.162,269.76 239.041,269.16 239.041,268.493 C239.041,268.035 239.11,267.595 239.249,267.171 C239.388,266.747 239.582,266.368 239.832,266.036 C240.082,265.703 240.387,265.422 240.748,265.193 C241.109,264.964 241.512,264.799 241.957,264.703 L241.957,264.661 C241.582,264.564 241.245,264.405 240.946,264.183 C240.647,263.961 240.394,263.704 240.186,263.411 C239.978,263.121 239.818,262.801 239.707,262.454 C239.596,262.107 239.54,261.76 239.54,261.413" fill="#FFFFFF"/>
      <path d="M237.521,241.61 L236.708,239.647 L267.342,226.958 L268.155,228.921 z" fill="#000"/>
      <path d="M235.582,237.961 L234.08,236.459 L257.526,213.012 L259.029,214.515 z" fill="#000"/>
      <path d="M232.394,235.333 L230.431,234.52 L243.12,203.885 L245.083,204.699 z" fill="#000"/>
      <path d="M228.443,234.124 L226.318,234.124 L226.318,200.966 L228.443,200.966 z" fill="#000"/>
      <path d="M222.367,235.333 L209.678,204.699 L211.641,203.885 L224.33,234.52 z" fill="#000"/>
      <path d="M219.179,237.961 L195.733,214.515 L197.236,213.012 L220.682,236.459 z" fill="#000"/>
      <path d="M217.24,241.61 L186.606,228.921 L187.419,226.958 L218.053,239.647 z" fill="#000"/>
      <path d="M211.727,331.064 L212.169,334.378 L215.458,333.774 C215.458,333.774 215.492,330.545 215.906,329.235 C214.788,330.034 211.727,331.064 211.727,331.064" fill="#000"/>
      <path d="M205.833,304.036 L202.818,305.479 L204.409,308.421 C204.409,308.421 207.49,307.456 208.865,307.444 C207.758,306.628 205.833,304.036 205.833,304.036" fill="#000"/>
      <path d="M225.044,290.081 L227.349,287.659 L229.654,290.081 C229.654,290.081 227.784,292.714 227.349,294.017 L227.349,294.017 L227.349,294.017 C226.914,292.714 225.044,290.081 225.044,290.081" fill="#000"/>
      <path d="M248.929,304.036 L251.945,305.479 L250.354,308.421 C250.354,308.421 247.272,307.456 245.897,307.444 L245.898,307.444 L245.897,307.444 C247.003,306.628 248.929,304.036 248.929,304.036" fill="#000"/>
      <path d="M243.034,331.064 L242.592,334.378 L239.304,333.774 C239.304,333.774 239.269,330.545 238.855,329.235 L238.855,329.235 L238.855,329.235 C239.973,330.034 243.034,331.064 243.034,331.064" fill="#000"/>
      <path d="M228.774,304.347 C231.784,304.802 234.316,306.708 235.641,309.329 L242.108,307.514 C242.108,307.514 244.634,306.875 245.784,304.775 C246.965,302.616 246.162,300.754 244.732,299.525 C243.306,298.299 240.57,297.994 238.28,298.476 L238.272,298.487 L238.279,298.476 C238.031,296.149 236.896,293.642 235.289,292.664 C233.678,291.684 231.659,291.496 229.971,293.286 C228.328,295.029 228.502,297.628 228.502,297.628 z" fill="#000"/>
      <path d="M212.653,307.514 L219.12,309.329 C220.445,306.708 222.977,304.802 225.987,304.347 L226.259,297.628 C226.259,297.628 226.433,295.029 224.79,293.286 C223.102,291.496 221.084,291.684 219.472,292.664 C217.866,293.642 216.73,296.149 216.482,298.476 L216.49,298.487 L216.481,298.476 C214.191,297.994 211.456,298.299 210.029,299.525 C208.599,300.754 207.797,302.616 208.977,304.775 C210.127,306.875 212.653,307.514 212.653,307.514" fill="#000"/>
      <path d="M231.633,321.71 C230.36,322.371 228.914,322.746 227.381,322.746 C225.853,322.746 224.414,322.374 223.144,321.719 L218.983,326.984 C218.983,326.984 217.314,328.985 217.619,331.361 C217.932,333.802 219.676,334.836 221.555,334.989 C223.43,335.144 225.823,333.782 227.391,332.046 L227.392,332.032 L227.392,332.046 C228.961,333.782 231.354,335.144 233.228,334.989 C235.108,334.836 236.851,333.802 237.164,331.361 C237.469,328.985 235.8,326.984 235.8,326.984 z" fill="#000"/>
      <path d="M247.398,309.713 C245.232,308.689 242.815,309.657 242.815,309.657 L236.509,311.991 C236.589,312.481 236.632,312.983 236.632,313.494 C236.632,316.064 235.584,318.388 233.893,320.065 L237.617,325.651 C237.617,325.651 239.004,327.857 241.358,328.301 C243.776,328.757 245.298,327.419 246.025,325.679 C246.751,323.943 246.196,321.247 245.029,319.219 L245.016,319.214 L245.029,319.218 C247.166,318.263 249.199,316.407 249.632,314.577 C250.067,312.742 249.622,310.765 247.398,309.713" fill="#000"/>
      <path d="M218.129,313.495 C218.129,312.983 218.172,312.48 218.253,311.992 L211.947,309.658 C211.947,309.658 209.528,308.689 207.363,309.714 C205.139,310.766 204.694,312.743 205.129,314.578 C205.562,316.408 207.596,318.264 209.732,319.219 L209.745,319.215 L209.732,319.22 C208.566,321.247 208.01,323.944 208.735,325.68 C209.463,327.419 210.985,328.758 213.403,328.302 C215.757,327.857 217.144,325.652 217.144,325.652 L220.868,320.065 C219.177,318.389 218.129,316.064 218.129,313.495" fill="#000"/>
      <path d="M220.07,313.495 C220.07,309.457 223.343,306.184 227.381,306.184 C231.419,306.184 234.692,309.457 234.692,313.495 C234.692,317.533 231.419,320.807 227.381,320.807 C223.343,320.807 220.07,317.533 220.07,313.495" fill="#000"/>
      <path d="M317.093,264.471 C317.093,266.328 316.773,268.005 316.135,269.499 C315.496,270.995 314.625,272.264 313.523,273.309 C312.419,274.354 311.113,275.16 309.604,275.726 C308.095,276.292 306.455,276.575 304.684,276.575 C302.913,276.575 301.273,276.292 299.764,275.726 C298.255,275.16 296.941,274.354 295.824,273.309 C294.706,272.264 293.835,270.995 293.212,269.499 C292.587,268.005 292.276,266.328 292.276,264.471 L292.276,244.965 L297.761,244.965 L297.761,264.297 C297.761,265.052 297.877,265.842 298.11,266.67 C298.342,267.497 298.726,268.259 299.263,268.955 C299.8,269.652 300.511,270.225 301.397,270.675 C302.282,271.126 303.378,271.35 304.684,271.35 C305.99,271.35 307.086,271.126 307.971,270.675 C308.856,270.225 309.568,269.652 310.105,268.955 C310.641,268.259 311.026,267.497 311.259,266.67 C311.49,265.842 311.607,265.052 311.607,264.297 L311.607,244.965 L317.093,244.965 z" fill="#000"/>
      <path d="M322.813,254.893 L327.776,254.893 L327.776,258.245 L327.863,258.245 C328.357,257.201 329.111,256.293 330.128,255.524 C331.145,254.755 332.522,254.371 334.264,254.371 C335.658,254.371 336.839,254.603 337.812,255.067 C338.784,255.532 339.576,256.141 340.185,256.895 C340.796,257.651 341.23,258.521 341.492,259.508 C341.753,260.495 341.883,261.526 341.883,262.599 L341.883,275.792 L336.658,275.792 L336.658,265.211 C336.658,264.63 336.629,263.984 336.572,263.273 C336.513,262.562 336.361,261.896 336.115,261.271 C335.867,260.647 335.483,260.125 334.96,259.703 C334.438,259.284 333.727,259.073 332.827,259.073 C331.956,259.073 331.223,259.217 330.628,259.508 C330.033,259.798 329.54,260.19 329.148,260.684 C328.757,261.177 328.473,261.743 328.299,262.38 C328.125,263.02 328.038,263.688 328.038,264.384 L328.038,275.792 L322.813,275.792 z" fill="#000"/>
      <path d="M347.386,254.892 L352.611,254.892 L352.611,275.791 L347.386,275.791 z M346.646,247.795 C346.646,246.954 346.958,246.221 347.583,245.597 C348.206,244.973 348.998,244.661 349.956,244.661 C350.914,244.661 351.719,244.958 352.372,245.553 C353.025,246.148 353.352,246.896 353.352,247.795 C353.352,248.695 353.025,249.443 352.372,250.038 C351.719,250.633 350.914,250.931 349.956,250.931 C348.998,250.931 348.206,250.619 347.583,249.994 C346.958,249.37 346.646,248.638 346.646,247.795" fill="#000"/>
      <path d="M355.581,254.892 L361.284,254.892 L366.857,269.521 L366.945,269.521 L372.561,254.892 L377.916,254.892 L369.687,275.792 L364.115,275.792 z" fill="#000"/>
      <path d="M394.788,263.252 C394.759,261.713 394.28,260.502 393.352,259.616 C392.422,258.731 391.131,258.288 389.476,258.288 C387.909,258.288 386.668,258.739 385.754,259.638 C384.84,260.538 384.28,261.743 384.078,263.252 z M384.078,267.17 C384.252,268.738 384.861,269.957 385.906,270.828 C386.951,271.699 388.214,272.134 389.695,272.134 C391,272.134 392.096,271.866 392.982,271.329 C393.867,270.792 394.643,270.117 395.311,269.304 L399.056,272.134 C397.836,273.644 396.472,274.718 394.962,275.356 C393.453,275.994 391.871,276.314 390.217,276.314 C388.65,276.314 387.169,276.052 385.776,275.53 C384.382,275.008 383.178,274.267 382.162,273.31 C381.146,272.352 380.34,271.198 379.746,269.848 C379.15,268.498 378.853,266.996 378.853,265.342 C378.853,263.688 379.15,262.185 379.746,260.835 C380.34,259.486 381.146,258.332 382.162,257.374 C383.178,256.416 384.382,255.676 385.776,255.153 C387.169,254.631 388.65,254.37 390.217,254.37 C391.668,254.37 392.996,254.625 394.2,255.132 C395.405,255.64 396.436,256.373 397.291,257.331 C398.147,258.288 398.815,259.472 399.294,260.879 C399.773,262.287 400.014,263.905 400.014,265.734 L400.014,267.17 z" fill="#000"/>
      <path d="M404.52,254.893 L409.745,254.893 L409.745,258.202 L409.831,258.202 C410.411,256.982 411.238,256.039 412.312,255.372 C413.387,254.705 414.62,254.371 416.013,254.371 C416.332,254.371 416.645,254.399 416.949,254.457 C417.254,254.516 417.565,254.588 417.887,254.674 L417.887,259.725 C417.451,259.609 417.021,259.516 416.602,259.441 C416.181,259.371 415.767,259.333 415.361,259.333 C414.142,259.333 413.163,259.559 412.422,260.009 C411.681,260.458 411.116,260.974 410.724,261.553 C410.331,262.135 410.07,262.715 409.939,263.296 C409.81,263.876 409.745,264.311 409.745,264.602 L409.745,275.792 L404.52,275.792 z" fill="#000"/>
      <path d="M432.833,260.683 C431.816,259.261 430.453,258.55 428.74,258.55 C428.044,258.55 427.361,258.724 426.694,259.072 C426.026,259.42 425.692,259.987 425.692,260.77 C425.692,261.409 425.968,261.874 426.52,262.163 C427.071,262.454 427.768,262.701 428.61,262.903 C429.451,263.107 430.358,263.317 431.331,263.535 C432.303,263.752 433.21,264.087 434.052,264.536 C434.894,264.987 435.59,265.603 436.143,266.387 C436.693,267.17 436.969,268.245 436.969,269.609 C436.969,270.857 436.701,271.91 436.164,272.765 C435.627,273.622 434.93,274.311 434.073,274.833 C433.218,275.356 432.252,275.733 431.179,275.966 C430.104,276.198 429.03,276.314 427.957,276.314 C426.331,276.314 424.837,276.081 423.472,275.617 C422.107,275.153 420.889,274.311 419.814,273.092 L423.298,269.826 C423.965,270.581 424.684,271.198 425.453,271.677 C426.222,272.156 427.158,272.395 428.262,272.395 C428.639,272.395 429.03,272.352 429.437,272.265 C429.844,272.178 430.221,272.033 430.569,271.829 C430.918,271.626 431.2,271.372 431.418,271.067 C431.636,270.763 431.744,270.407 431.744,270 C431.744,269.275 431.468,268.738 430.918,268.39 C430.365,268.041 429.669,267.758 428.827,267.54 C427.985,267.323 427.078,267.12 426.106,266.931 C425.134,266.743 424.227,266.438 423.385,266.016 C422.543,265.596 421.847,265.009 421.295,264.253 C420.743,263.499 420.468,262.454 420.468,261.119 C420.468,259.958 420.708,258.949 421.187,258.092 C421.666,257.236 422.297,256.533 423.08,255.98 C423.863,255.43 424.764,255.023 425.779,254.762 C426.796,254.5 427.826,254.37 428.871,254.37 C430.265,254.37 431.643,254.609 433.007,255.088 C434.371,255.567 435.474,256.388 436.316,257.548 z" fill="#000"/>
      <path d="M440.995,254.892 L446.22,254.892 L446.22,275.791 L440.995,275.791 z M440.255,247.795 C440.255,246.954 440.566,246.221 441.191,245.597 C441.814,244.973 442.605,244.661 443.563,244.661 C444.521,244.661 445.328,244.958 445.98,245.553 C446.634,246.148 446.961,246.896 446.961,247.795 C446.961,248.695 446.634,249.443 445.98,250.038 C445.328,250.633 444.521,250.931 443.563,250.931 C442.605,250.931 441.814,250.619 441.191,249.994 C440.566,249.37 440.255,248.638 440.255,247.795" fill="#000"/>
      <path d="M449.372,259.333 L449.372,254.892 L453.683,254.892 L453.683,248.84 L458.907,248.84 L458.907,254.892 L464.654,254.892 L464.654,259.333 L458.907,259.333 L458.907,268.476 C458.907,269.521 459.103,270.349 459.495,270.958 C459.888,271.567 460.663,271.873 461.825,271.873 C462.289,271.873 462.797,271.822 463.349,271.72 C463.899,271.619 464.335,271.452 464.654,271.219 L464.654,275.617 C464.103,275.878 463.428,276.059 462.63,276.161 C461.831,276.262 461.128,276.313 460.518,276.313 C459.125,276.313 457.985,276.161 457.101,275.856 C456.215,275.551 455.518,275.087 455.011,274.463 C454.503,273.839 454.154,273.063 453.966,272.133 C453.776,271.205 453.683,270.13 453.683,268.912 L453.683,259.333 z" fill="#000"/>
      <path d="M466.705,254.893 L472.452,254.893 L478.287,269.392 L478.374,269.392 L483.599,254.893 L489.04,254.893 L479.157,280.276 C478.78,281.263 478.366,282.126 477.917,282.867 C477.466,283.607 476.937,284.23 476.327,284.738 C475.718,285.246 475,285.624 474.172,285.871 C473.345,286.117 472.351,286.241 471.189,286.241 C469.825,286.241 468.49,286.066 467.184,285.719 L467.837,281.017 C468.243,281.161 468.671,281.284 469.121,281.387 C469.571,281.487 470.028,281.539 470.493,281.539 C471.131,281.539 471.669,281.479 472.103,281.365 C472.539,281.247 472.909,281.066 473.214,280.819 C473.518,280.573 473.772,280.255 473.976,279.862 C474.179,279.47 474.396,278.999 474.63,278.448 L475.631,275.966 z" fill="#000"/>
      <path d="M505.934,265.342 C505.934,266.155 506.072,266.939 506.347,267.693 C506.622,268.448 507.03,269.115 507.567,269.696 C508.104,270.277 508.749,270.741 509.504,271.089 C510.258,271.438 511.116,271.612 512.073,271.612 C513.031,271.612 513.887,271.438 514.642,271.089 C515.397,270.741 516.041,270.277 516.58,269.696 C517.116,269.115 517.523,268.448 517.798,267.693 C518.074,266.939 518.212,266.155 518.212,265.342 C518.212,264.53 518.074,263.746 517.798,262.991 C517.523,262.237 517.116,261.569 516.58,260.988 C516.041,260.407 515.397,259.943 514.642,259.595 C513.887,259.246 513.031,259.072 512.073,259.072 C511.116,259.072 510.258,259.246 509.504,259.595 C508.749,259.943 508.104,260.407 507.567,260.988 C507.03,261.569 506.622,262.237 506.347,262.991 C506.072,263.746 505.934,264.53 505.934,265.342 M500.709,265.342 C500.709,263.688 501.006,262.185 501.602,260.836 C502.196,259.486 503.002,258.332 504.018,257.374 C505.034,256.416 506.239,255.676 507.632,255.154 C509.025,254.631 510.506,254.37 512.073,254.37 C513.64,254.37 515.122,254.631 516.514,255.154 C517.908,255.676 519.112,256.416 520.128,257.374 C521.143,258.332 521.95,259.486 522.544,260.836 C523.139,262.185 523.437,263.688 523.437,265.342 C523.437,266.996 523.139,268.498 522.544,269.848 C521.95,271.198 521.143,272.352 520.128,273.31 C519.112,274.267 517.908,275.008 516.514,275.53 C515.122,276.052 513.64,276.314 512.073,276.314 C510.506,276.314 509.025,276.052 507.632,275.53 C506.239,275.008 505.034,274.267 504.018,273.31 C503.002,272.352 502.196,271.198 501.602,269.848 C501.006,268.498 500.709,266.996 500.709,265.342" fill="#000"/>
      <path d="M529.701,259.333 L525.39,259.333 L525.39,254.892 L529.701,254.892 L529.701,251.931 C529.701,250.48 529.803,249.166 530.006,247.991 C530.209,246.815 530.594,245.807 531.159,244.965 C531.725,244.124 532.516,243.478 533.532,243.027 C534.549,242.578 535.868,242.353 537.495,242.353 C538.684,242.353 539.787,242.455 540.804,242.657 L540.455,247.098 C540.078,247.011 539.715,246.939 539.367,246.88 C539.018,246.823 538.655,246.793 538.278,246.793 C537.553,246.793 536.972,246.91 536.537,247.142 C536.101,247.375 535.76,247.686 535.513,248.078 C535.266,248.47 535.106,248.927 535.035,249.45 C534.962,249.972 534.926,250.523 534.926,251.104 L534.926,254.892 L539.759,254.892 L539.759,259.333 L534.926,259.333 L534.926,275.791 L529.701,275.791 z" fill="#000"/>
      <path d="M313.566,294.056 C312.434,292.836 311.338,292.024 310.279,291.618 C309.219,291.212 308.152,291.008 307.079,291.008 C305.482,291.008 304.038,291.291 302.747,291.857 C301.455,292.423 300.345,293.207 299.416,294.208 C298.486,295.21 297.768,296.378 297.26,297.713 C296.753,299.049 296.499,300.485 296.499,302.023 C296.499,303.679 296.753,305.202 297.26,306.595 C297.768,307.989 298.486,309.193 299.416,310.209 C300.345,311.225 301.455,312.023 302.747,312.604 C304.038,313.184 305.482,313.474 307.079,313.474 C308.326,313.474 309.539,313.177 310.714,312.582 C311.89,311.987 312.985,311.036 314.002,309.73 L318.529,312.952 C317.136,314.868 315.439,316.262 313.436,317.132 C311.433,318.003 309.299,318.437 307.035,318.437 C304.655,318.437 302.47,318.053 300.483,317.284 C298.494,316.515 296.781,315.427 295.345,314.018 C293.908,312.611 292.783,310.921 291.97,308.946 C291.158,306.973 290.752,304.781 290.752,302.372 C290.752,299.905 291.158,297.662 291.97,295.645 C292.783,293.628 293.908,291.908 295.345,290.486 C296.781,289.064 298.494,287.968 300.483,287.198 C302.47,286.43 304.655,286.044 307.035,286.044 C309.125,286.044 311.063,286.414 312.848,287.155 C314.633,287.895 316.294,289.151 317.833,290.921 z" fill="#000"/>
      <path d="M336.307,305.115 C336.277,303.577 335.798,302.365 334.87,301.479 C333.941,300.594 332.649,300.151 330.995,300.151 C329.428,300.151 328.186,300.601 327.272,301.501 C326.358,302.401 325.799,303.606 325.596,305.115 z M325.596,309.033 C325.77,310.601 326.38,311.819 327.425,312.69 C328.47,313.561 329.732,313.997 331.213,313.997 C332.519,313.997 333.614,313.728 334.5,313.191 C335.385,312.654 336.161,311.979 336.829,311.167 L340.574,313.997 C339.354,315.507 337.99,316.581 336.481,317.219 C334.971,317.856 333.39,318.177 331.735,318.177 C330.167,318.177 328.687,317.916 327.294,317.392 C325.901,316.871 324.696,316.13 323.681,315.172 C322.664,314.215 321.858,313.06 321.264,311.711 C320.668,310.361 320.371,308.859 320.371,307.204 C320.371,305.55 320.668,304.049 321.264,302.699 C321.858,301.348 322.664,300.195 323.681,299.237 C324.696,298.279 325.901,297.539 327.294,297.016 C328.687,296.494 330.167,296.233 331.735,296.233 C333.186,296.233 334.514,296.487 335.719,296.995 C336.923,297.503 337.953,298.236 338.81,299.193 C339.666,300.151 340.334,301.335 340.813,302.742 C341.292,304.15 341.531,305.768 341.531,307.596 L341.531,309.033 z" fill="#000"/>
      <path d="M346.038,296.755 L351.001,296.755 L351.001,300.107 L351.088,300.107 C351.581,299.063 352.336,298.156 353.352,297.386 C354.368,296.618 355.747,296.233 357.488,296.233 C358.882,296.233 360.064,296.465 361.037,296.929 C362.009,297.394 362.801,298.004 363.41,298.757 C364.019,299.513 364.455,300.383 364.716,301.371 C364.977,302.357 365.108,303.388 365.108,304.462 L365.108,317.654 L359.883,317.654 L359.883,307.074 C359.883,306.494 359.854,305.847 359.796,305.136 C359.738,304.425 359.585,303.758 359.339,303.133 C359.092,302.51 358.708,301.987 358.185,301.566 C357.663,301.146 356.951,300.935 356.052,300.935 C355.181,300.935 354.447,301.08 353.853,301.371 C353.258,301.661 352.765,302.052 352.372,302.546 C351.981,303.04 351.698,303.606 351.523,304.244 C351.35,304.883 351.263,305.549 351.263,306.247 L351.263,317.654 L346.038,317.654 z" fill="#000"/>
      <path d="M368.081,301.196 L368.081,296.755 L372.391,296.755 L372.391,290.703 L377.616,290.703 L377.616,296.755 L383.363,296.755 L383.363,301.196 L377.616,301.196 L377.616,310.34 C377.616,311.384 377.812,312.212 378.204,312.821 C378.596,313.43 379.372,313.735 380.534,313.735 C380.998,313.735 381.505,313.685 382.058,313.584 C382.608,313.482 383.043,313.315 383.363,313.083 L383.363,317.479 C382.812,317.741 382.136,317.923 381.339,318.024 C380.54,318.126 379.837,318.176 379.227,318.176 C377.834,318.176 376.694,318.024 375.81,317.719 C374.924,317.415 374.227,316.951 373.719,316.326 C373.211,315.703 372.863,314.926 372.674,313.997 C372.485,313.068 372.391,311.994 372.391,310.775 L372.391,301.196 z" fill="#000"/>
      <path d="M387.404,296.755 L392.628,296.755 L392.628,300.064 L392.716,300.064 C393.296,298.845 394.123,297.902 395.197,297.234 C396.271,296.567 397.505,296.233 398.898,296.233 C399.217,296.233 399.529,296.261 399.834,296.319 C400.139,296.378 400.45,296.45 400.771,296.537 L400.771,301.588 C400.335,301.472 399.906,301.378 399.486,301.304 C399.065,301.233 398.652,301.196 398.245,301.196 C397.026,301.196 396.047,301.422 395.306,301.871 C394.566,302.321 394,302.837 393.608,303.417 C393.216,303.998 392.954,304.578 392.824,305.158 C392.694,305.739 392.628,306.174 392.628,306.464 L392.628,317.654 L387.404,317.654 z" fill="#000"/>
      <path d="M416.706,308.293 L415.618,308.293 C414.891,308.293 414.079,308.321 413.18,308.38 C412.279,308.438 411.431,308.575 410.632,308.793 C409.833,309.011 409.159,309.33 408.607,309.751 C408.056,310.172 407.781,310.76 407.781,311.514 C407.781,312.008 407.89,312.422 408.107,312.755 C408.325,313.09 408.607,313.372 408.956,313.605 C409.304,313.837 409.696,314.004 410.132,314.105 C410.566,314.207 411.002,314.258 411.438,314.258 C413.237,314.258 414.565,313.829 415.422,312.973 C416.277,312.116 416.706,310.948 416.706,309.468 z M417.01,314.779 L416.88,314.779 C416.125,315.97 415.167,316.833 414.006,317.37 C412.845,317.907 411.568,318.176 410.175,318.176 C409.217,318.176 408.281,318.045 407.367,317.783 C406.453,317.523 405.639,317.131 404.929,316.608 C404.217,316.086 403.644,315.433 403.209,314.649 C402.774,313.865 402.556,312.951 402.556,311.906 C402.556,310.774 402.759,309.809 403.165,309.011 C403.571,308.213 404.116,307.546 404.798,307.008 C405.48,306.472 406.271,306.043 407.171,305.724 C408.07,305.404 409.006,305.165 409.979,305.006 C410.952,304.846 411.931,304.744 412.918,304.701 C413.904,304.657 414.834,304.635 415.705,304.635 L417.01,304.635 L417.01,304.069 C417.01,302.764 416.56,301.783 415.661,301.13 C414.761,300.477 413.615,300.15 412.222,300.15 C411.118,300.15 410.088,300.346 409.13,300.738 C408.173,301.13 407.345,301.66 406.648,302.327 L403.905,299.585 C405.065,298.395 406.424,297.538 407.977,297.016 C409.529,296.493 411.133,296.232 412.788,296.232 C414.268,296.232 415.516,296.399 416.532,296.732 C417.547,297.066 418.389,297.495 419.058,298.017 C419.725,298.54 420.239,299.143 420.603,299.824 C420.966,300.507 421.227,301.195 421.387,301.893 C421.546,302.589 421.641,303.264 421.67,303.917 C421.698,304.569 421.713,305.144 421.713,305.637 L421.713,317.653 L417.01,317.653 z" fill="#000"/>
      <path d="M427.146,284.738 L432.371,284.738 L432.371,317.654 L427.146,317.654 z" fill="#000"/>
      <path d="M451.744,286.828 L457.23,286.828 L457.23,312.69 L470.336,312.69 L470.336,317.654 L451.744,317.654 z" fill="#000"/>
      <path d="M486.907,308.293 L485.819,308.293 C485.093,308.293 484.28,308.321 483.381,308.38 C482.48,308.438 481.632,308.575 480.834,308.793 C480.035,309.011 479.36,309.33 478.808,309.751 C478.257,310.172 477.982,310.76 477.982,311.514 C477.982,312.008 478.091,312.422 478.308,312.755 C478.526,313.09 478.808,313.372 479.157,313.605 C479.506,313.837 479.897,314.004 480.333,314.105 C480.767,314.207 481.204,314.258 481.639,314.258 C483.438,314.258 484.766,313.829 485.623,312.973 C486.478,312.116 486.907,310.948 486.907,309.468 z M487.212,314.779 L487.081,314.779 C486.326,315.97 485.368,316.833 484.208,317.37 C483.047,317.907 481.769,318.176 480.376,318.176 C479.418,318.176 478.482,318.045 477.568,317.783 C476.654,317.523 475.841,317.131 475.13,316.608 C474.419,316.086 473.845,315.433 473.41,314.649 C472.975,313.865 472.757,312.951 472.757,311.906 C472.757,310.774 472.96,309.809 473.367,309.011 C473.772,308.213 474.317,307.546 475,307.008 C475.681,306.472 476.472,306.043 477.372,305.724 C478.271,305.404 479.207,305.165 480.18,305.006 C481.153,304.846 482.133,304.744 483.119,304.701 C484.105,304.657 485.035,304.635 485.906,304.635 L487.212,304.635 L487.212,304.069 C487.212,302.764 486.761,301.783 485.862,301.13 C484.962,300.477 483.816,300.15 482.423,300.15 C481.319,300.15 480.29,300.346 479.332,300.738 C478.374,301.13 477.547,301.66 476.849,302.327 L474.106,299.585 C475.266,298.395 476.625,297.538 478.178,297.016 C479.73,296.493 481.334,296.232 482.989,296.232 C484.469,296.232 485.717,296.399 486.732,296.732 C487.749,297.066 488.591,297.495 489.259,298.017 C489.926,298.54 490.44,299.143 490.804,299.824 C491.167,300.507 491.428,301.195 491.588,301.893 C491.747,302.589 491.842,303.264 491.871,303.917 C491.899,304.569 491.914,305.144 491.914,305.637 L491.914,317.653 L487.212,317.653 z" fill="#000"/>
      <path d="M497.3,296.755 L502.263,296.755 L502.263,300.107 L502.35,300.107 C502.843,299.063 503.598,298.156 504.614,297.386 C505.63,296.618 507.009,296.233 508.751,296.233 C510.144,296.233 511.326,296.465 512.299,296.929 C513.272,297.394 514.063,298.004 514.672,298.757 C515.282,299.513 515.717,300.383 515.979,301.371 C516.239,302.357 516.37,303.388 516.37,304.462 L516.37,317.654 L511.146,317.654 L511.146,307.074 C511.146,306.494 511.115,305.847 511.059,305.136 C510.999,304.425 510.848,303.758 510.601,303.133 C510.354,302.51 509.97,301.987 509.447,301.566 C508.925,301.146 508.213,300.935 507.314,300.935 C506.444,300.935 505.709,301.08 505.115,301.371 C504.52,301.661 504.027,302.052 503.635,302.546 C503.242,303.04 502.96,303.606 502.786,304.244 C502.612,304.883 502.525,305.549 502.525,306.247 L502.525,317.654 L497.3,317.654 z" fill="#000"/>
      <path d="M536.045,303.025 C535.436,302.386 534.796,301.879 534.129,301.501 C533.461,301.124 532.779,300.935 532.083,300.935 C531.125,300.935 530.268,301.109 529.514,301.458 C528.759,301.805 528.113,302.27 527.576,302.85 C527.039,303.431 526.632,304.098 526.357,304.853 C526.081,305.609 525.943,306.392 525.943,307.204 C525.943,308.017 526.081,308.801 526.357,309.555 C526.632,310.311 527.039,310.978 527.576,311.558 C528.113,312.139 528.759,312.604 529.514,312.952 C530.268,313.3 531.125,313.474 532.083,313.474 C532.896,313.474 533.649,313.307 534.346,312.973 C535.043,312.64 535.638,312.154 536.132,311.514 L539.614,315.259 C539.093,315.782 538.49,316.232 537.808,316.609 C537.125,316.987 536.437,317.292 535.74,317.524 C535.043,317.755 534.375,317.922 533.737,318.024 C533.099,318.126 532.547,318.176 532.083,318.176 C530.516,318.176 529.034,317.916 527.642,317.392 C526.248,316.871 525.044,316.129 524.027,315.171 C523.012,314.214 522.205,313.06 521.611,311.711 C521.016,310.361 520.719,308.859 520.719,307.204 C520.719,305.549 521.016,304.048 521.611,302.699 C522.205,301.348 523.012,300.195 524.027,299.237 C525.044,298.278 526.248,297.539 527.642,297.016 C529.034,296.494 530.516,296.233 532.083,296.233 C533.417,296.233 534.761,296.487 536.11,296.995 C537.46,297.503 538.642,298.308 539.658,299.411 z" fill="#000"/>
      <path d="M555.737,308.293 L554.649,308.293 C553.923,308.293 553.11,308.321 552.211,308.38 C551.31,308.438 550.462,308.575 549.664,308.793 C548.865,309.011 548.19,309.33 547.638,309.751 C547.087,310.172 546.812,310.76 546.812,311.514 C546.812,312.008 546.921,312.422 547.138,312.755 C547.356,313.09 547.638,313.372 547.987,313.605 C548.336,313.837 548.727,314.004 549.163,314.105 C549.597,314.207 550.034,314.258 550.469,314.258 C552.268,314.258 553.596,313.829 554.453,312.973 C555.308,312.116 555.737,310.948 555.737,309.468 z M556.042,314.779 L555.911,314.779 C555.156,315.97 554.198,316.833 553.038,317.37 C551.877,317.907 550.599,318.176 549.206,318.176 C548.248,318.176 547.312,318.045 546.398,317.783 C545.484,317.523 544.671,317.131 543.96,316.608 C543.249,316.086 542.675,315.433 542.24,314.649 C541.805,313.865 541.587,312.951 541.587,311.906 C541.587,310.774 541.79,309.809 542.197,309.011 C542.602,308.213 543.147,307.546 543.83,307.008 C544.511,306.472 545.302,306.043 546.202,305.724 C547.101,305.404 548.037,305.165 549.01,305.006 C549.983,304.846 550.963,304.744 551.949,304.701 C552.935,304.657 553.865,304.635 554.736,304.635 L556.042,304.635 L556.042,304.069 C556.042,302.764 555.591,301.783 554.692,301.13 C553.792,300.477 552.646,300.15 551.253,300.15 C550.149,300.15 549.12,300.346 548.162,300.738 C547.204,301.13 546.377,301.66 545.679,302.327 L542.936,299.585 C544.096,298.395 545.455,297.538 547.008,297.016 C548.56,296.493 550.164,296.232 551.819,296.232 C553.299,296.232 554.547,296.399 555.562,296.732 C556.579,297.066 557.421,297.495 558.089,298.017 C558.756,298.54 559.27,299.143 559.634,299.824 C559.997,300.507 560.258,301.195 560.418,301.893 C560.577,302.589 560.672,303.264 560.701,303.917 C560.729,304.569 560.744,305.144 560.744,305.637 L560.744,317.653 L556.042,317.653 z" fill="#000"/>
      <path d="M577.385,302.545 C576.368,301.123 575.004,300.412 573.292,300.412 C572.596,300.412 571.913,300.586 571.246,300.935 C570.577,301.282 570.244,301.849 570.244,302.632 C570.244,303.272 570.52,303.736 571.072,304.026 C571.622,304.316 572.32,304.563 573.161,304.766 C574.002,304.969 574.909,305.179 575.883,305.398 C576.855,305.614 577.762,305.948 578.604,306.399 C579.446,306.849 580.142,307.465 580.694,308.248 C581.245,309.032 581.521,310.107 581.521,311.471 C581.521,312.72 581.252,313.772 580.715,314.628 C580.178,315.483 579.481,316.173 578.625,316.695 C577.77,317.218 576.804,317.595 575.73,317.827 C574.656,318.06 573.581,318.176 572.508,318.176 C570.882,318.176 569.388,317.943 568.024,317.479 C566.658,317.015 565.441,316.173 564.366,314.954 L567.849,311.689 C568.517,312.443 569.236,313.06 570.005,313.539 C570.774,314.018 571.71,314.258 572.813,314.258 C573.19,314.258 573.581,314.214 573.989,314.126 C574.395,314.039 574.772,313.895 575.12,313.691 C575.469,313.489 575.752,313.234 575.97,312.93 C576.188,312.625 576.296,312.27 576.296,311.862 C576.296,311.137 576.02,310.601 575.469,310.252 C574.917,309.903 574.221,309.621 573.379,309.402 C572.536,309.185 571.63,308.982 570.658,308.793 C569.686,308.605 568.778,308.3 567.937,307.878 C567.095,307.458 566.399,306.87 565.847,306.115 C565.295,305.36 565.02,304.316 565.02,302.981 C565.02,301.82 565.259,300.811 565.739,299.954 C566.217,299.099 566.848,298.395 567.632,297.843 C568.415,297.292 569.315,296.885 570.331,296.624 C571.347,296.363 572.378,296.232 573.422,296.232 C574.816,296.232 576.194,296.471 577.559,296.95 C578.923,297.429 580.026,298.25 580.868,299.41 z" fill="#000"/>
      <path d="M590.79,299.671 L590.877,299.671 C591.283,298.801 592.002,298.01 593.032,297.298 C594.061,296.588 595.39,296.232 597.017,296.232 C598.409,296.232 599.592,296.465 600.564,296.928 C601.537,297.393 602.328,298.003 602.937,298.757 C603.547,299.513 603.982,300.383 604.244,301.37 C604.504,302.357 604.636,303.388 604.636,304.461 L604.636,317.653 L599.411,317.653 L599.411,307.073 C599.411,306.493 599.381,305.847 599.324,305.136 C599.265,304.425 599.113,303.758 598.866,303.133 C598.619,302.51 598.234,301.986 597.713,301.566 C597.19,301.146 596.478,300.935 595.579,300.935 C594.709,300.935 593.975,301.079 593.381,301.37 C592.785,301.66 592.292,302.052 591.9,302.545 C591.508,303.039 591.226,303.606 591.052,304.243 C590.877,304.883 590.79,305.549 590.79,306.246 L590.79,317.653 L585.565,317.653 L585.565,284.737 L590.79,284.737 z" fill="#000"/>
      <path d="M610.138,296.755 L615.363,296.755 L615.363,317.654 L610.138,317.654 z M609.397,289.658 C609.397,288.816 609.709,288.083 610.334,287.459 C610.957,286.835 611.748,286.523 612.706,286.523 C613.664,286.523 614.471,286.821 615.123,287.415 C615.776,288.011 616.104,288.758 616.104,289.658 C616.104,290.558 615.776,291.306 615.123,291.9 C614.471,292.496 613.664,292.793 612.706,292.793 C611.748,292.793 610.957,292.481 610.334,291.856 C609.709,291.233 609.397,290.5 609.397,289.658" fill="#000"/>
      <path d="M620.996,296.755 L626.221,296.755 L626.221,300.064 L626.308,300.064 C626.889,298.845 627.716,297.902 628.79,297.234 C629.863,296.567 631.098,296.233 632.49,296.233 C632.809,296.233 633.122,296.261 633.427,296.319 C633.731,296.378 634.043,296.45 634.363,296.537 L634.363,301.588 C633.928,301.472 633.499,301.378 633.078,301.304 C632.657,301.233 632.244,301.196 631.837,301.196 C630.618,301.196 629.639,301.422 628.898,301.871 C628.158,302.321 627.592,302.837 627.2,303.417 C626.808,303.998 626.547,304.578 626.417,305.158 C626.286,305.739 626.221,306.174 626.221,306.464 L626.221,317.654 L620.996,317.654 z" fill="#000"/>
      <path d="M652.428,305.115 C652.399,303.577 651.919,302.365 650.991,301.479 C650.062,300.594 648.77,300.151 647.116,300.151 C645.549,300.151 644.308,300.601 643.394,301.501 C642.479,302.401 641.919,303.606 641.717,305.115 z M641.717,309.033 C641.891,310.601 642.5,311.819 643.546,312.69 C644.591,313.561 645.854,313.997 647.334,313.997 C648.64,313.997 649.736,313.728 650.621,313.191 C651.506,312.654 652.282,311.979 652.95,311.167 L656.695,313.997 C655.476,315.507 654.111,316.581 652.602,317.219 C651.093,317.856 649.511,318.177 647.857,318.177 C646.289,318.177 644.808,317.916 643.415,317.392 C642.022,316.871 640.818,316.13 639.801,315.172 C638.785,314.215 637.979,313.06 637.385,311.711 C636.789,310.361 636.492,308.859 636.492,307.204 C636.492,305.55 636.789,304.049 637.385,302.699 C637.979,301.348 638.785,300.195 639.801,299.237 C640.818,298.279 642.022,297.539 643.415,297.016 C644.808,296.494 646.289,296.233 647.857,296.233 C649.307,296.233 650.635,296.487 651.84,296.995 C653.044,297.503 654.075,298.236 654.931,299.193 C655.786,300.151 656.455,301.335 656.934,302.742 C657.413,304.15 657.653,305.768 657.653,307.596 L657.653,309.033 z" fill="#000"/>
    </g>
  </g>
</svg>
